<svg xmlns="http://www.w3.org/2000/svg" width="80" height="80" class="lds-stripe" preserveAspectRatio="xMidYMid" viewBox="-200 -200 500 500" style="background:#fefac7 0 0"><defs><pattern id="blah" width="100" height="100" x="0" y="0" patternUnits="userSpaceOnUse"><g transform="translate(7.8 0)"><g transform="rotate(20 50 50) scale(1.2)"><rect width="10" height="120" x="-20" y="-10" fill="orange" ng-attr-fill="{{config.c1}}"/><rect width="10" height="120" x="-10" y="-10" fill="#ffffcb" ng-attr-fill="{{config.c2}}"/><rect width="10" height="120" x="0" y="-10" fill="orange" ng-attr-fill="{{config.c1}}"/><rect width="10" height="120" x="10" y="-10" fill="#ffffcb" ng-attr-fill="{{config.c2}}"/><rect width="10" height="120" x="20" y="-10" fill="orange" ng-attr-fill="{{config.c1}}"/><rect width="10" height="120" x="30" y="-10" fill="#ffffcb" ng-attr-fill="{{config.c2}}"/><rect width="10" height="120" x="40" y="-10" fill="orange" ng-attr-fill="{{config.c1}}"/><rect width="10" height="120" x="50" y="-10" fill="#ffffcb" ng-attr-fill="{{config.c2}}"/><rect width="10" height="120" x="60" y="-10" fill="orange" ng-attr-fill="{{config.c1}}"/><rect width="10" height="120" x="70" y="-10" fill="#ffffcb" ng-attr-fill="{{config.c2}}"/><rect width="10" height="120" x="80" y="-10" fill="orange" ng-attr-fill="{{config.c1}}"/><rect width="10" height="120" x="90" y="-10" fill="#ffffcb" ng-attr-fill="{{config.c2}}"/><rect width="10" height="120" x="100" y="-10" fill="orange" ng-attr-fill="{{config.c1}}"/><rect width="10" height="120" x="110" y="-10" fill="orange" ng-attr-fill="{{config.c1}}"/></g><animateTransform attributeName="transform" dur="1s" keyTimes="0;1" ng-attr-dur="{{config.speed}}s" repeatCount="indefinite" type="translate" values="0 0;26 0"/></g></pattern></defs><rect width="90" height="28" x="5" y="36" fill="url(#blah)" stroke="orange" stroke-width="5" ng-attr-height="{{config.height}}" ng-attr-rx="{{config.r}}" ng-attr-ry="{{config.r}}" ng-attr-stroke="{{config.stroke}}" ng-attr-stroke-width="{{config.strokeWidth}}" ng-attr-width="{{config.width}}" ng-attr-x="{{config.x}}" ng-attr-y="{{config.y}}" rx="15" ry="15"/></svg>